# xmcd
# 
# Track frame offsets:
#     182
#     19307
#     37762
#     65407
#     82005
#     96132
#     109235
#     135960
#     153635
#     181272
#     197015
#     209522
#     220555
#     240437
#     258602
#     281847
# 
# Disc length: 4081
# 
# Revision: 4
# Processed by: cddbd v1.5.2PL0 Copyright (c) Steve Scherf et al.
# Submitted via: fre:ac v1.0.17
# 
DISCID=e00fef10
DTITLE=Various Artist - Hard Rock Cafe - Modern Blues
DYEAR=1998
DGENRE=Blues
TTITLE0=Cream - Crossroads
TTITLE1=Jimmie Vaughan - Just like Putty
TTITLE2=Stevie Ray Vaughan and Double Trouble - Ain't Gone 'n' Give Up on Love
TTITLE3=The Allman Brothers Band - Ain't Wastin' Time No More
TTITLE4=Albert Collins - Ice Pick
TTITLE5=John Mayall and The Bluesbreakers - The Super-Natural
TTITLE6=Kenny Wayne Shepherd - Born with a Broken Heart
TTITLE7=Bonnie Raitt - Runaway
TTITLE8=Storyville - What Passes for Love
TTITLE9=The Robert Cray Band - Phone Booth
TTITLE10=Albert King - Born under a Bad Sign
TTITLE11=The Paul Butterfield Blues Band - Shake Your Money-Maker
TTITLE12=Buddy Guy - Damn Right, I've got the Blues
TTITLE13=Koko Taylor - It Took a Long Time
TTITLE14=Joe Louis Walker - Blues of the Month Club
TTITLE15=B.B. King - The Thrill is Gone
EXTD=YEAR: 1998
EXTT0=
EXTT1=
EXTT2=
EXTT3=
EXTT4=
EXTT5=
EXTT6=
EXTT7=
EXTT8=
EXTT9=
EXTT10=
EXTT11=
EXTT12=
EXTT13=
EXTT14=
EXTT15=
PLAYORDER=
